<svg xmlns="http://www.w3.org/2000/svg" viewBox="0 0 960 540">
  <defs>
    <linearGradient id="bg2" x1="0" x2="1" y1="0" y2="1">
      <stop offset="0%" stop-color="#22c55e"/>
      <stop offset="100%" stop-color="#16a34a"/>
    </linearGradient>
  </defs>
  <rect width="960" height="540" fill="#0c1110"/>
  <g opacity="0.18">
    <circle cx="120" cy="420" r="140" fill="#16a34a"/>
    <circle cx="840" cy="100" r="120" fill="url(#bg2)"/>
  </g>
  <g transform="translate(120,120)">
    <rect rx="18" width="360" height="300" fill="#121a17" stroke="#1c2621"/>
    <g transform="translate(24,20)">
      <rect width="312" height="16" rx="8" fill="#e7f5ee"/>
      <rect y="28" width="260" height="14" rx="7" fill="#9fb2aa"/>
    </g>
    <g transform="translate(24,90)" fill="#e7f5ee">
      <rect width="72" height="12" rx="6"/>
      <rect x="96" width="220" height="12" rx="6"/>
      <rect y="26" width="72" height="12" rx="6"/>
      <rect x="96" y="26" width="160" height="12" rx="6"/>
      <rect y="52" width="72" height="12" rx="6"/>
      <rect x="96" y="52" width="200" height="12" rx="6"/>
    </g>
  </g>
  <g transform="translate(540,110)">
    <rect rx="24" width="300" height="300" fill="#121a17" stroke="#1c2621"/>
    <rect x="36" y="36" width="228" height="92" rx="12" fill="#0f1614" stroke="#1c2621"/>
    <rect x="36" y="148" width="228" height="92" rx="12" fill="#0f1614" stroke="#1c2621"/>
    <rect x="36" y="260" width="120" height="12" rx="6" fill="#e7f5ee"/>
    <rect x="168" y="260" width="96" height="12" rx="6" fill="#9fb2aa"/>
    <circle cx="66" cy="82" r="14" fill="url(#bg2)"/>
    <rect x="92" y="74" width="150" height="16" rx="8" fill="#e7f5ee"/>
  </g>
  <text x="120" y="460" fill="#e7f5ee" font-family="Inter, system-ui, Roboto, Arial" font-size="36" font-weight="800">Analitik ve İçgörüler</text>
  <text x="120" y="496" fill="#9fb2aa" font-family="Inter, system-ui, Roboto, Arial" font-size="20">Trendler, karşılaştırmalar ve hedef takibi</text>
</svg>
